<svg xmlns="http://www.w3.org/2000/svg" xml:lang="en" height="130.03599999999997pt" width="222.7pt" viewBox="-18.199999999999996 -107.3 222.7 130.03599999999997"><circle cx="2.975891721928068e-15" cy="-48.599999999999994" r="16.2" style="stroke:black;fill:none;stroke-width:2;" /><path d="M 0.0,-0.0 L 1.9839278146187122e-15,-32.4 L 1.9839278146187122e-15,-32.4 M 3.9678556292374245e-15,-64.8 L 3.9678556292374245e-15,-64.8 L 5.951783443856136e-15,-97.19999999999999" style="stroke:black;fill:none;stroke-width:2;stroke-linecap:round;stroke-linejoin:round;" /><path d="M 2.4799097682733903e-15,-40.5 L 2.975891721928068e-15,-48.599999999999994" style="stroke:black;fill:none;stroke-width:2;stroke-linecap:round;stroke-linejoin:round;" /><path d="M 3.349408995668011e-15 -54.699999999999996 L 2.4300000000000024 -48.6 L -2.429999999999997 -48.6 Z" style="stroke:black;fill:black;stroke-linecap:butt;stroke-linejoin:miter;" /><path d="M 5.951783443856136e-15,-97.19999999999999 L 32.400000000000006,-97.19999999999999 L 35.1,-105.3 L 40.50000000000001,-89.1 L 45.9,-105.3 L 51.300000000000004,-89.1 L 56.7,-105.3 L 62.1,-89.1 L 64.8,-97.19999999999999 L 97.19999999999999,-97.19999999999999" style="stroke:black;fill:none;stroke-width:2;stroke-linecap:round;stroke-linejoin:round;" /><path d="M 97.19999999999999,-97.19999999999999 L 97.19999999999999,-64.8 L 105.3,-62.1 L 89.1,-56.699999999999996 L 105.29999999999998,-51.300000000000004 L 89.09999999999998,-45.9 L 105.29999999999998,-40.5 L 89.09999999999998,-35.1 L 97.19999999999997,-32.4 L 97.19999999999997,-0.0" style="stroke:black;fill:none;stroke-width:2;stroke-linecap:round;stroke-linejoin:round;" /><path d="M 97.19999999999999,-97.19999999999999 L 129.6,-97.19999999999999 L 132.29999999999998,-105.3 L 137.7,-89.1 L 143.09999999999997,-105.3 L 148.49999999999997,-89.1 L 153.9,-105.3 L 159.29999999999998,-89.1 L 162.0,-97.19999999999999 L 194.39999999999998,-97.19999999999999" style="stroke:black;fill:none;stroke-width:2;stroke-linecap:round;stroke-linejoin:round;" /><path d="M 194.39999999999998,-97.19999999999999 L 194.39999999999998,-64.8 L 202.5,-62.1 L 186.29999999999998,-56.699999999999996 L 202.5,-51.300000000000004 L 186.29999999999998,-45.9 L 202.5,-40.5 L 186.29999999999998,-35.1 L 194.39999999999998,-32.4 L 194.39999999999995,-0.0" style="stroke:black;fill:none;stroke-width:2;stroke-linecap:round;stroke-linejoin:round;" /><path d="M 194.39999999999995,-0.0 L 97.19999999999997,-1.190356688771227e-14 L 0.0,-2.380713377542454e-14" style="stroke:black;fill:none;stroke-width:2;stroke-linecap:round;stroke-linejoin:round;" /><path d="M 0.0,-2.380713377542454e-14 L 0.0,12.959999999999976 L -8.1,12.959999999999976 L 8.1,12.959999999999976 M -5.669999999999999,16.847999999999974 L 5.669999999999999,16.847999999999974 M -1.62,20.735999999999976 L 1.62,20.735999999999976" style="stroke:black;fill:none;stroke-width:2;stroke-linecap:round;stroke-linejoin:round;" /><g><g fill="black"><symbol id="STIXTwoMath-Regular_3784" width="560" height="51.216" viewBox="0 -31.524 560 51.216"><path d="M 0.396 0.0 L 1.992 -7.884 L 4.212 -7.884 Q 5.364 -7.884, 6.042 -7.452 Q 6.72 -7.0200000000000005, 6.72 -5.988 Q 6.72 -5.28, 6.4079999999999995 -4.758 Q 6.096 -4.236, 5.562 -3.894 Q 5.0280000000000005 -3.552, 4.356 -3.42 L 5.772 0.0 L 4.74 0.0 L 3.42 -3.336 L 2.028 -3.336 L 1.344 0.0 Z M 2.196 -4.104 L 3.396 -4.104 Q 4.548 -4.104, 5.16 -4.59 Q 5.772 -5.0760000000000005, 5.772 -5.88 Q 5.772 -6.5520000000000005, 5.328 -6.8340000000000005 Q 4.884 -7.1160000000000005, 3.972 -7.1160000000000005 L 2.7960000000000003 -7.1160000000000005 Z " /></symbol><use href="#STIXTwoMath-Regular_3784" transform="translate(170.46279999999996 -81.72925000000001) scale(1.1666666666666667)" /><symbol id="STIXTwoMath-Regular_3778" width="408" height="51.216" viewBox="0 -31.524 408 51.216"><path d="M 0.396 0.0 L 1.992 -7.884 L 2.952 -7.884 L 1.512 -0.804 L 4.896 -0.804 L 4.74 0.0 Z " /></symbol><use href="#STIXTwoMath-Regular_3778" transform="translate(178.41479999999996 -67.75585000000001) scale(0.8166666666666668)" /></g></g></svg>